<svg width="144" height="41" viewBox="0 0 144 41" fill="none" xmlns="http://www.w3.org/2000/svg">
<path d="M30.3964 17.2675C31.4364 17.2675 32.3644 17.4835 33.1804 17.9155C34.0124 18.3475 34.6604 18.9875 35.1244 19.8355C35.6044 20.6835 35.8444 21.7075 35.8444 22.9075V30.7075H33.1324V23.3155C33.1324 22.1315 32.8364 21.2275 32.2444 20.6035C31.6524 19.9635 30.8444 19.6435 29.8204 19.6435C28.7964 19.6435 27.9804 19.9635 27.3724 20.6035C26.7804 21.2275 26.4844 22.1315 26.4844 23.3155V30.7075H23.7724V23.3155C23.7724 22.1315 23.4764 21.2275 22.8844 20.6035C22.2924 19.9635 21.4844 19.6435 20.4604 19.6435C19.4364 19.6435 18.6204 19.9635 18.0124 20.6035C17.4204 21.2275 17.1244 22.1315 17.1244 23.3155V30.7075H14.3884V17.4835H17.1244V18.9955C17.5724 18.4515 18.1404 18.0275 18.8284 17.7235C19.5164 17.4195 20.2524 17.2675 21.0364 17.2675C22.0924 17.2675 23.0364 17.4915 23.8684 17.9395C24.7004 18.3875 25.3404 19.0355 25.7884 19.8835C26.1884 19.0835 26.8124 18.4515 27.6604 17.9875C28.5084 17.5075 29.4204 17.2675 30.3964 17.2675ZM52.4459 23.7715C52.4459 24.2675 52.4139 24.7155 52.3499 25.1155H42.2459C42.3259 26.1715 42.7179 27.0195 43.4219 27.6595C44.1259 28.2995 44.9899 28.6195 46.0139 28.6195C47.4859 28.6195 48.5259 28.0035 49.1339 26.7715H52.0859C51.6859 27.9875 50.9579 28.9875 49.9019 29.7715C48.8619 30.5395 47.5659 30.9235 46.0139 30.9235C44.7499 30.9235 43.6139 30.6435 42.6059 30.0835C41.6139 29.5075 40.8299 28.7075 40.2539 27.6835C39.6939 26.6435 39.4139 25.4435 39.4139 24.0835C39.4139 22.7235 39.6859 21.5315 40.2299 20.5075C40.7899 19.4675 41.5659 18.6675 42.5579 18.1075C43.5659 17.5475 44.7179 17.2675 46.0139 17.2675C47.2619 17.2675 48.3739 17.5395 49.3499 18.0835C50.3259 18.6275 51.0859 19.3955 51.6299 20.3875C52.1739 21.3635 52.4459 22.4915 52.4459 23.7715ZM49.5899 22.9075C49.5739 21.8995 49.2139 21.0915 48.5099 20.4835C47.8059 19.8755 46.9339 19.5715 45.8939 19.5715C44.9499 19.5715 44.1419 19.8755 43.4699 20.4835C42.7979 21.0755 42.3979 21.8835 42.2699 22.9075H49.5899ZM55.2264 24.0835C55.2264 22.7235 55.4984 21.5315 56.0424 20.5075C56.6024 19.4675 57.3704 18.6675 58.3464 18.1075C59.3224 17.5475 60.4424 17.2675 61.7064 17.2675C63.3064 17.2675 64.6264 17.6515 65.6664 18.4195C66.7224 19.1715 67.4344 20.2515 67.8024 21.6595H64.8504C64.6104 21.0035 64.2264 20.4915 63.6984 20.1235C63.1704 19.7555 62.5064 19.5715 61.7064 19.5715C60.5864 19.5715 59.6904 19.9715 59.0184 20.7715C58.3624 21.5555 58.0344 22.6595 58.0344 24.0835C58.0344 25.5075 58.3624 26.6195 59.0184 27.4195C59.6904 28.2195 60.5864 28.6195 61.7064 28.6195C63.2904 28.6195 64.3384 27.9235 64.8504 26.5315H67.8024C67.4184 27.8755 66.6984 28.9475 65.6424 29.7475C64.5864 30.5315 63.2744 30.9235 61.7064 30.9235C60.4424 30.9235 59.3224 30.6435 58.3464 30.0835C57.3704 29.5075 56.6024 28.7075 56.0424 27.6835C55.4984 26.6435 55.2264 25.4435 55.2264 24.0835ZM78.369 17.2675C79.377 17.2675 80.273 17.4835 81.057 17.9155C81.857 18.3475 82.481 18.9875 82.929 19.8355C83.393 20.6835 83.625 21.7075 83.625 22.9075V30.7075H80.913V23.3155C80.913 22.1315 80.617 21.2275 80.025 20.6035C79.433 19.9635 78.625 19.6435 77.601 19.6435C76.577 19.6435 75.761 19.9635 75.153 20.6035C74.561 21.2275 74.265 22.1315 74.265 23.3155V30.7075H71.529V12.9475H74.265V19.0195C74.729 18.4595 75.313 18.0275 76.017 17.7235C76.737 17.4195 77.521 17.2675 78.369 17.2675ZM93.8509 30.9235C92.6029 30.9235 91.4749 30.6435 90.4669 30.0835C89.4589 29.5075 88.6669 28.7075 88.0909 27.6835C87.5149 26.6435 87.2269 25.4435 87.2269 24.0835C87.2269 22.7395 87.5229 21.5475 88.1149 20.5075C88.7069 19.4675 89.5149 18.6675 90.5389 18.1075C91.5629 17.5475 92.7069 17.2675 93.9709 17.2675C95.2349 17.2675 96.3789 17.5475 97.4029 18.1075C98.4269 18.6675 99.2349 19.4675 99.8269 20.5075C100.419 21.5475 100.715 22.7395 100.715 24.0835C100.715 25.4275 100.411 26.6195 99.8029 27.6595C99.1949 28.6995 98.3629 29.5075 97.3069 30.0835C96.2669 30.6435 95.1149 30.9235 93.8509 30.9235ZM93.8509 28.5475C94.5549 28.5475 95.2109 28.3795 95.8189 28.0435C96.4429 27.7075 96.9469 27.2035 97.3309 26.5315C97.7149 25.8595 97.9069 25.0435 97.9069 24.0835C97.9069 23.1235 97.7229 22.3155 97.3549 21.6595C96.9869 20.9875 96.4989 20.4835 95.8909 20.1475C95.2829 19.8115 94.6269 19.6435 93.9229 19.6435C93.2189 19.6435 92.5629 19.8115 91.9549 20.1475C91.3629 20.4835 90.8909 20.9875 90.5389 21.6595C90.1869 22.3155 90.0109 23.1235 90.0109 24.0835C90.0109 25.5075 90.3709 26.6115 91.0909 27.3955C91.8269 28.1635 92.7469 28.5475 93.8509 28.5475ZM103.508 24.0355C103.508 22.7075 103.78 21.5315 104.324 20.5075C104.884 19.4835 105.636 18.6915 106.58 18.1315C107.54 17.5555 108.604 17.2675 109.772 17.2675C110.636 17.2675 111.484 17.4595 112.316 17.8435C113.164 18.2115 113.836 18.7075 114.332 19.3315V12.9475H117.092V30.7075H114.332V28.7155C113.884 29.3555 113.26 29.8835 112.46 30.2995C111.676 30.7155 110.772 30.9235 109.748 30.9235C108.596 30.9235 107.54 30.6355 106.58 30.0595C105.636 29.4675 104.884 28.6515 104.324 27.6115C103.78 26.5555 103.508 25.3635 103.508 24.0355ZM114.332 24.0835C114.332 23.1715 114.14 22.3795 113.756 21.7075C113.388 21.0355 112.9 20.5235 112.292 20.1715C111.684 19.8195 111.028 19.6435 110.324 19.6435C109.62 19.6435 108.964 19.8195 108.356 20.1715C107.748 20.5075 107.252 21.0115 106.868 21.6835C106.5 22.3395 106.316 23.1235 106.316 24.0355C106.316 24.9475 106.5 25.7475 106.868 26.4355C107.252 27.1235 107.748 27.6515 108.356 28.0195C108.98 28.3715 109.636 28.5475 110.324 28.5475C111.028 28.5475 111.684 28.3715 112.292 28.0195C112.9 27.6675 113.388 27.1555 113.756 26.4835C114.14 25.7955 114.332 24.9955 114.332 24.0835ZM120.773 24.0355C120.773 22.7075 121.045 21.5315 121.589 20.5075C122.149 19.4835 122.901 18.6915 123.845 18.1315C124.805 17.5555 125.861 17.2675 127.013 17.2675C128.053 17.2675 128.957 17.4755 129.725 17.8915C130.509 18.2915 131.133 18.7955 131.597 19.4035V17.4835H134.357V30.7075H131.597V28.7395C131.133 29.3635 130.501 29.8835 129.701 30.2995C128.901 30.7155 127.989 30.9235 126.965 30.9235C125.829 30.9235 124.789 30.6355 123.845 30.0595C122.901 29.4675 122.149 28.6515 121.589 27.6115C121.045 26.5555 120.773 25.3635 120.773 24.0355ZM131.597 24.0835C131.597 23.1715 131.405 22.3795 131.021 21.7075C130.653 21.0355 130.165 20.5235 129.557 20.1715C128.949 19.8195 128.293 19.6435 127.589 19.6435C126.885 19.6435 126.229 19.8195 125.621 20.1715C125.013 20.5075 124.517 21.0115 124.133 21.6835C123.765 22.3395 123.581 23.1235 123.581 24.0355C123.581 24.9475 123.765 25.7475 124.133 26.4355C124.517 27.1235 125.013 27.6515 125.621 28.0195C126.245 28.3715 126.901 28.5475 127.589 28.5475C128.293 28.5475 128.949 28.3715 129.557 28.0195C130.165 27.6675 130.653 27.1555 131.021 26.4835C131.405 25.7955 131.597 24.9955 131.597 24.0835ZM141.687 12.9475V30.7075H138.951V12.9475H141.687Z" fill="black"/>
<path d="M23.9226 2.32993C24.4015 2.6147 25.5536 3.10657 26.0197 3.41723L27.4566 4.97052L27.9226 5.86365L28.3498 6.75679L26.8352 6.25198L24.4662 5.86365L19.8448 5.16468L16.1943 4.65986L13.9419 4.3492L12.5826 4.15504L11.1846 4.03854L10.0583 4.07738L8.97096 4.27154L7.96124 4.62103L7.02919 5.08701L5.59228 6.21314L4.6214 7.37811L4.23305 8.11592L3.88353 8.93139L3.49518 10.64L3.45634 28.6581L3.61168 29.8619L3.80586 30.6386L3.14566 30.2891L2.36895 29.6678L1.78642 29.0464L1.12622 28.1921L0.815542 27.6873L0.58253 27.1825L0.155341 26.0175L0.0388353 25.1244L0 24.2313L0 19.6102L0 16.3095L0 13.2029L0 10.8342L0 7.7276L0.0776706 5.82482L0.543694 4.50453L1.3204 3.10657L1.94177 2.36876L2.60197 1.70861L3.41751 1.16496L4.23305 0.737811L5.1651 0.388322L6.13598 0.0776643L7.41754 0L8.07774 0.0388322L8.73794 0.116496L18.1361 1.39796L23.9226 2.32993Z" fill="#F72B60"/>
<path d="M26.9616 5.42712C27.441 5.71213 28.5942 6.20442 29.0606 6.51535L30.4988 8.06995L30.9653 8.96385L31.3929 9.85775L29.8769 9.3525L27.5058 8.96385L22.8801 8.26428L19.2263 7.75903L16.9718 7.44811L15.6113 7.25378L14.2119 7.13719L13.0847 7.17605L11.9963 7.37038L10.9856 7.72016L10.0527 8.18654L8.6145 9.31363L7.64273 10.4796L7.25402 11.218L6.90418 12.0342L6.51547 13.7443L6.4766 31.7777L6.63209 32.9825L6.82644 33.7598L6.16564 33.41L5.38822 32.7882L4.80515 32.1663L4.14435 31.3113L3.83338 30.806L3.60015 30.3008L3.17257 29.1348L3.05596 28.2409L3.01709 27.347V22.7221V19.4186V16.3094V13.9386V10.8294L3.09483 8.92498L3.56128 7.60357L4.3387 6.20442L4.96064 5.46599L5.62144 4.80528L6.43773 4.26117L7.25402 3.83365L8.18692 3.48387L9.1587 3.17295L10.4414 3.09521L11.1022 3.13408L11.7631 3.21181L21.1698 4.49436L26.9616 5.42712Z" fill="#18C0FF"/>
<path d="M29.9045 8.93637C30.3835 9.22114 31.5356 9.71302 32.0016 10.0237L33.4385 11.577L33.9045 12.4701L34.3317 13.3632L32.8171 12.8584L30.4482 12.4701L25.8268 11.7711L22.1763 11.2663L19.9238 10.9556L18.5646 10.7615L17.1665 10.645L16.0403 10.6838L14.9529 10.878L13.9432 11.2275L13.0111 11.6935L11.5742 12.8196L10.6033 13.9846L10.215 14.7224L9.86546 15.5378L9.47711 17.2465L9.43828 35.2646L9.59362 36.4684L9.78779 37.245L9.12759 36.8955L8.35089 36.2742L7.76836 35.6529L7.10816 34.7986L6.79748 34.2938L6.56446 33.7889L6.13727 32.624L6.02077 31.7308L5.98193 30.8377V26.2167V22.9159V19.8094V17.4406V14.334L6.0596 12.4313L6.52563 11.111L7.30233 9.71302L7.9237 8.97521L8.5839 8.31506L9.39944 7.77141L10.215 7.34426L11.147 6.99477L12.1179 6.68411L13.3995 6.60645L14.0597 6.64528L14.7199 6.72294L24.118 8.0044L29.9045 8.93637Z" fill="#FDB400"/>
</svg>
